<?xml version="1.0" encoding="UTF-8"?>
<svg id="Camada_1" data-name="Camada 1" xmlns="http://www.w3.org/2000/svg" xmlns:xlink="http://www.w3.org/1999/xlink" viewBox="0 0 2500 1205.12">
  <defs>
    <style>
      .cls-1 {
        fill: url(#Gradiente_sem_nome_4);
      }

      .cls-1, .cls-2, .cls-3, .cls-4, .cls-5, .cls-6, .cls-7, .cls-8 {
        stroke-width: 0px;
      }

      .cls-2 {
        fill: url(#Gradiente_sem_nome_4-3);
      }

      .cls-3 {
        fill: url(#Gradiente_sem_nome_4-6);
      }

      .cls-4 {
        fill: url(#Gradiente_sem_nome_4-4);
      }

      .cls-5 {
        fill: url(#Gradiente_sem_nome_4-2);
      }

      .cls-6 {
        fill: url(#Gradiente_sem_nome_4-5);
      }

      .cls-7 {
        fill: #1d1d1b;
      }

      .cls-8 {
        fill: #fff;
      }
    </style>
    <linearGradient id="Gradiente_sem_nome_4" data-name="Gradiente sem nome 4" x1="-23.34" y1="273.66" x2="422.04" y2="964.25" gradientUnits="userSpaceOnUse">
      <stop offset="0" stop-color="#e9467d"/>
      <stop offset="1" stop-color="#d61f65"/>
    </linearGradient>
    <linearGradient id="Gradiente_sem_nome_4-2" data-name="Gradiente sem nome 4" x1="-186.5" y1="157.64" x2="818.22" y2="668.11" xlink:href="#Gradiente_sem_nome_4"/>
    <linearGradient id="Gradiente_sem_nome_4-3" data-name="Gradiente sem nome 4" x1="-161.55" y1="108.52" x2="843.18" y2="618.99" xlink:href="#Gradiente_sem_nome_4"/>
    <linearGradient id="Gradiente_sem_nome_4-4" data-name="Gradiente sem nome 4" x1="-148.8" y1="83.43" x2="855.93" y2="593.89" xlink:href="#Gradiente_sem_nome_4"/>
    <linearGradient id="Gradiente_sem_nome_4-5" data-name="Gradiente sem nome 4" x1="-125.9" y1="38.35" x2="878.83" y2="548.82" xlink:href="#Gradiente_sem_nome_4"/>
    <linearGradient id="Gradiente_sem_nome_4-6" data-name="Gradiente sem nome 4" x1="-125.25" y1="37.08" x2="879.48" y2="547.54" xlink:href="#Gradiente_sem_nome_4"/>
  </defs>
  <path class="cls-1" d="m163.9,255.19c-16.85,39.92-3.82,85.73,32.02,106.42,39.07,22.56,90.43,6.73,114.73-35.35,6.08-10.54,9.89-21.72,11.57-32.92.66,4.34,1,8.79,1,13.32,0,48.59-39.39,87.98-87.98,87.98s-87.98-39.39-87.98-87.98c0-19.22,6.17-37,16.63-51.48Zm24.9,380.75c-2.45-19.07-4.9-38.1-7.15-55.64,19.38,20.87,20.72,48.65,7.15,55.64ZM57.35,250.33c12.34-13.05,26.48-24.4,40.68-35.39-9.36,10.95-19.1,21.61-28.02,32.91-23.74,30.1-12.67,64.64,6.23,85.79,6.66,7.45,11.27,7.2,16.71-1.24,3.36-5.2,5.69-11.15,7.88-17,4.03-10.76,7.62-21.69,12.6-32.06-2.84,22.34-5.95,44.65-8.45,67.03-6.23,55.75-4.49,111.07,9.82,165.61,11.64,44.36,23.42,88.68,35.12,133.01.73,2.77,1.37,5.57,1.06,8.88-2.78-3.75-5.38-7.64-8.37-11.21-5.47-6.54-10-5.89-12.3,2.32-6.13,21.92-9.16,44.57-6.38,67.02,3.42,27.61,9.58,54.88,14.55,82.29.16.91.19,1.84.28,2.75-.65.2-1.3.39-1.95.59-4.13-12.5-8.76-24.85-12.29-37.52-9.13-32.72-13.99-66.08-11.81-100.11,1.04-16.21,4.05-32.3,5.11-48.51,1.51-23.03,1.64-45.85-5.59-68.49-14.88-46.64-26.22-94.18-24.07-143.6.57-13.06-3.05-22.33-11.49-31.72-12.47-13.87-24.83-28.11-31.99-45.79-11.24-27.76-8.14-53.58,12.66-75.57Zm214.07,387.55c-12.89,22.64-7.97,46.35-3.15,69.59,2.27,10.95.54,16.71-9.17,23.55-47.48,33.48-88.3,73.93-120.04,122.84-21.65,33.36-42.23,67.42-63.29,101.16-.25,0-.5,0-.75,0,8.97-21.66,17.38-43.57,27-64.95,31.92-70.96,80.81-128.91,139.24-179.32,5.46-4.71,7.84-9.27,7.77-16.56-.17-17.06,1.04-34.12,11.29-48.8,2.51-3.6,6.25-6.34,9.55-9.61,1.08,1.42,1.65,1.94,1.57,2.09Zm182.74,214.04c-47.84,55.17-104.61,99.94-166.97,137.73-.77.47-1.63.77-3.13.26,6.99-6.45,13.97-12.91,20.96-19.36,45.64-42.17,88.51-86.88,124.34-137.84,18.46-26.26,32.36-54.6,36.85-87.04,5.03-36.36-4.08-68.68-25.32-98.16-23.4-32.48-53-58.78-83.59-84.04-16.65-13.74-31.83-28.6-41.88-47.99-14.49-27.95-13.81-55.41,2.7-82.42,15.62-25.55,36.04-46.96,58.3-68.42-10.85,15.54-21.59,29.6-30.88,44.57-10.83,17.45-18.3,36.32-20.34,57.16-1.98,20.31,3.57,37.82,18.84,51.24,22.99,20.2,46.62,39.67,69.99,59.43,23.39,19.77,47.52,38.83,65.79,63.8,15.6,21.31,23.66,45.58,25.45,71.83,3.68,53.97-16.74,99.62-51.12,139.27Z"/>
  <g>
    <path class="cls-5" d="m421.99,410.41c27.63,0,45.58,14.72,50.63,37.52h-15.13c-3.63-15.73-16.94-25.41-35.5-25.41-21.58,0-39.13,14.72-39.13,44.58s17.55,44.78,39.13,44.78c18.56,0,31.67-9.48,35.5-25.62h15.13c-5.04,21.99-22.99,37.52-50.63,37.52-31.06,0-53.45-21.78-53.45-56.68s22.39-56.68,53.45-56.68Z"/>
    <path class="cls-2" d="m498.64,372.9h14.12v149.26h-14.12v-149.26Z"/>
    <path class="cls-4" d="m640.23,522.16h-14.12v-19.36c-6.66,13.92-21.18,21.18-37.52,21.18-25.01,0-44.78-15.33-44.78-47.6v-64.34h13.92v62.73c0,24.41,13.31,36.91,33.48,36.91s34.89-12.91,34.89-39.73v-59.9h14.12v110.13Z"/>
    <path class="cls-6" d="m730.19,410.41c30.26,0,52.44,21.99,52.44,56.48s-22.39,56.88-52.44,56.88c-21.98,0-37.11-11.5-43.77-25.82v24.2h-13.92v-149.26h13.92v63.54c6.86-14.52,22.19-26.02,43.77-26.02Zm-2.82,12.3c-22.39,0-40.95,16.94-40.95,44.37s18.56,44.37,40.95,44.37,40.95-16.74,40.95-44.58-17.75-44.17-40.95-44.17Z"/>
    <path class="cls-3" d="m811.07,523.16c-5.85,0-10.29-4.64-10.29-10.49s4.44-10.29,10.29-10.29,10.09,4.44,10.09,10.29-4.44,10.49-10.09,10.49Z"/>
    <path class="cls-7" d="m424.02,590.13c20.37,0,34.85,9.33,42.22,21.35v-19.39h41.97v136.96h-41.97v-19.39c-7.61,12.03-22.09,21.35-42.46,21.35-33.38,0-60.13-27.49-60.13-70.69s26.75-70.2,60.38-70.2Zm12.27,36.57c-15.71,0-29.94,11.78-29.94,33.63s14.24,34.12,29.94,34.12,29.95-12.03,29.95-33.87-13.99-33.87-29.95-33.87Z"/>
    <path class="cls-7" d="m599.02,590.13c34.36,0,58.66,18.9,65.78,51.54h-44.67c-3.44-9.57-10.31-15.71-21.85-15.71-14.97,0-25.28,11.78-25.28,34.61s10.31,34.61,25.28,34.61c11.54,0,18.16-5.65,21.85-15.71h44.67c-7.12,31.66-31.42,51.54-65.78,51.54-40.25,0-68.73-27-68.73-70.44s28.47-70.44,68.73-70.44Z"/>
    <g>
      <path class="cls-7" d="m423.77,741.38c-40.85,0-70.5-34.09-70.5-81.05,0-23.33,6.99-43.46,20.23-58.22,12.92-14.41,30.86-22.35,50.52-22.35,11.89,0,22.76,2.75,31.85,7.87v-5.91h62.7v157.69h-62.7v-6.06c-9.2,5.22-20.16,8.02-32.1,8.02Zm12.52-104.32c-9.03,0-19.58,6.09-19.58,23.26s9.83,23.75,19.58,23.75c9.03,0,19.58-6.16,19.58-23.51s-10.55-23.51-19.58-23.51Z"/>
      <path class="cls-8" d="m424.02,590.13c20.37,0,34.85,9.33,42.22,21.35v-19.39h41.97v136.96h-41.97v-19.39c-7.61,12.03-22.09,21.35-42.46,21.35-33.38,0-60.13-27.49-60.13-70.69s26.75-70.2,60.38-70.2m12.27,104.32c15.95,0,29.95-12.03,29.95-33.87s-13.99-33.87-29.95-33.87-29.94,11.78-29.94,33.63,14.24,34.12,29.94,34.12m-12.27-125.05c-22.64,0-43.33,9.16-58.24,25.79-14.96,16.69-22.87,39.22-22.87,65.14s7.87,48.46,22.76,65.28c14.92,16.85,35.55,26.14,58.11,26.14,7.63,0,14.92-1,21.73-2.92v.96h83.43v-178.42h-83.43v.96c-6.77-1.92-13.99-2.93-21.49-2.93h0Zm12.27,104.32c-5.77,0-9.21-5.01-9.21-13.39,0-11.22,5.77-12.9,9.21-12.9,8.02,0,9.22,8.23,9.22,13.14s-1.2,13.14-9.22,13.14h0Z"/>
    </g>
    <path class="cls-7" d="m749.48,731.02c-40.25,0-70.69-27-70.69-70.44s31.17-70.44,71.18-70.44,71.18,27,71.18,70.44-31.42,70.44-71.67,70.44Zm0-36.33c14.97,0,28.96-11.05,28.96-34.12s-13.75-34.12-28.47-34.12-28.47,10.8-28.47,34.12,12.76,34.12,27.98,34.12Z"/>
    <path class="cls-7" d="m1032.24,654.68c0-17.92-10.31-27.74-26.26-27.74s-26.26,9.82-26.26,27.74v74.37h-41.73v-74.37c0-17.92-10.31-27.74-26.26-27.74s-26.26,9.82-26.26,27.74v74.37h-41.97v-136.96h41.97v17.18c8.1-11.04,22.09-18.65,40.01-18.65,20.62,0,37.31,9.08,46.64,25.53,9.08-14.48,26.26-25.53,46.14-25.53,33.87,0,55.72,21.6,55.72,58.42v80.02h-41.73v-74.37Z"/>
    <path class="cls-7" d="m1187.61,590.13c33.63,0,60.38,27,60.38,70.2s-26.75,70.69-60.38,70.69c-20.13,0-34.61-9.57-42.22-21.11v84.43h-41.97v-202.25h41.97v19.39c7.61-12.03,22.09-21.35,42.22-21.35Zm-12.52,36.57c-15.71,0-29.95,12.03-29.95,33.87s14.24,33.87,29.95,33.87,30.19-12.27,30.19-34.12-14.24-33.63-30.19-33.63Z"/>
    <path class="cls-7" d="m1322.11,590.13c20.37,0,34.85,9.33,42.22,21.35v-19.39h41.97v136.96h-41.97v-19.39c-7.61,12.03-22.09,21.35-42.46,21.35-33.38,0-60.14-27.49-60.14-70.69s26.75-70.2,60.38-70.2Zm12.27,36.57c-15.71,0-29.95,11.78-29.95,33.63s14.24,34.12,29.95,34.12,29.94-12.03,29.94-33.87-13.99-33.87-29.94-33.87Z"/>
    <path class="cls-7" d="m1531.23,654.68c0-18.65-10.31-28.96-26.26-28.96s-26.26,10.31-26.26,28.96v74.37h-41.97v-136.96h41.97v18.16c8.35-11.54,23.07-19.64,41.48-19.64,31.66,0,52.77,21.6,52.77,58.42v80.02h-41.73v-74.37Z"/>
    <path class="cls-7" d="m1602.17,547.42h41.97v63.08c8.35-11.78,23.32-19.88,42.22-19.88,31.17,0,52.04,21.6,52.04,58.42v80.02h-41.73v-74.37c0-18.65-10.31-28.96-26.26-28.96s-26.26,10.31-26.26,28.96v74.37h-41.97v-181.63Z"/>
    <path class="cls-7" d="m1819.64,590.13c20.37,0,34.85,9.33,42.22,21.35v-19.39h41.97v136.96h-41.97v-19.39c-7.61,12.03-22.09,21.35-42.46,21.35-33.38,0-60.13-27.49-60.13-70.69s26.75-70.2,60.38-70.2Zm12.27,36.57c-15.71,0-29.94,11.78-29.94,33.63s14.24,34.12,29.94,34.12,29.95-12.03,29.95-33.87-13.99-33.87-29.95-33.87Z"/>
    <path class="cls-7" d="m2028.76,654.68c0-18.65-10.31-28.96-26.26-28.96s-26.26,10.31-26.26,28.96v74.37h-41.97v-136.96h41.97v18.16c8.35-11.54,23.07-19.64,41.48-19.64,31.66,0,52.77,21.6,52.77,58.42v80.02h-41.73v-74.37Z"/>
    <path class="cls-7" d="m2106.32,626.95h-16.69v-34.85h16.69v-33.38h41.97v33.38h27.49v34.85h-27.49v54.98c0,8.1,3.44,11.54,12.76,11.54h14.97v35.59h-21.35c-28.47,0-48.35-12.03-48.35-47.62v-54.49Z"/>
    <path class="cls-7" d="m2260.22,731.02c-40.25,0-69.22-27-69.22-70.44s28.47-70.44,69.22-70.44,68.24,26.51,68.24,68.23c0,3.93-.25,8.1-.74,12.27h-94.99c1.47,17.92,12.52,26.26,26.02,26.26,11.78,0,18.41-5.89,21.85-13.25h44.67c-6.63,26.75-30.93,47.37-65.04,47.37Zm-27.24-83.7h52.53c0-14.97-11.78-23.56-25.77-23.56s-24.3,8.34-26.75,23.56Z"/>
    <path class="cls-7" d="m2406.26,731.02c-36.57,0-61.12-20.37-63.08-46.88h41.48c.98,9.57,9.57,15.95,21.11,15.95,10.8,0,16.45-4.91,16.45-11.05,0-22.09-74.62-6.14-74.62-56.45,0-23.32,19.88-42.46,55.72-42.46s54.98,19.64,57.68,46.64h-38.78c-1.23-9.33-8.35-15.46-20.13-15.46-9.82,0-15.22,3.93-15.22,10.55,0,21.84,74.13,6.38,74.86,57.43,0,23.81-21.11,41.73-55.47,41.73Z"/>
  </g>
</svg>